<?xml version="1.0" standalone="no"?>
<!DOCTYPE svg PUBLIC "-//W3C//DTD SVG 20010904//EN"
 "http://www.w3.org/TR/2001/REC-SVG-20010904/DTD/svg10.dtd">
<svg version="1.0" xmlns="http://www.w3.org/2000/svg"
 width="1024.000000pt" height="1024.000000pt" viewBox="0 0 1024.000000 1024.000000"
 preserveAspectRatio="xMidYMid meet">
<metadata>
Created by potrace 1.14, written by Peter Selinger 2001-2017
</metadata>
<g transform="translate(0.000000,1024.000000) scale(0.100000,-0.100000)"
fill="#000000" stroke="none">
<path d="M2339 10086 c-2 -2 -33 -7 -69 -11 -104 -10 -189 -24 -280 -46 -47
-11 -94 -22 -104 -24 -88 -19 -302 -102 -436 -170 -136 -69 -149 -76 -187
-102 -17 -13 -34 -23 -37 -23 -22 0 -264 -189 -350 -272 -26 -27 -51 -48 -55
-48 -3 0 -15 -13 -26 -29 -10 -16 -23 -27 -27 -25 -4 3 -8 1 -8 -5 0 -5 -18
-29 -41 -53 -34 -36 -75 -89 -197 -253 -24 -32 -106 -172 -145 -247 -68 -131
-145 -326 -173 -437 -2 -9 -13 -52 -24 -96 -21 -85 -23 -95 -35 -165 -4 -25
-9 -54 -11 -65 -2 -10 -7 -49 -11 -85 -11 -87 -10 -5535 0 -5625 4 -38 10 -77
12 -85 2 -8 7 -35 10 -60 11 -83 67 -306 94 -375 5 -11 23 -58 41 -105 18 -47
55 -130 83 -185 27 -55 57 -115 66 -132 8 -18 19 -33 23 -33 4 0 8 -5 8 -12 0
-6 11 -26 25 -44 14 -18 25 -36 25 -39 0 -6 70 -101 152 -208 41 -52 271 -283
316 -317 19 -14 39 -30 45 -35 26 -23 138 -105 143 -105 2 0 10 -5 17 -10 63
-54 317 -188 469 -246 144 -56 324 -105 468 -129 25 -4 53 -9 63 -11 10 -2 48
-7 85 -11 84 -10 5602 -11 5696 -1 38 4 95 12 125 18 31 5 72 12 91 15 171 29
417 113 610 209 143 72 340 192 340 208 0 5 5 8 11 8 6 0 26 12 44 27 17 16
52 44 76 63 52 41 261 250 304 303 17 20 45 54 62 75 18 20 33 41 33 45 0 5 6
15 13 22 70 79 212 333 279 499 50 125 121 362 133 441 1 11 8 49 13 85 6 36
15 94 19 130 11 86 10 5535 0 5625 -5 39 -10 79 -12 90 -3 11 -7 36 -9 56 -12
82 -72 316 -101 389 -7 19 -23 62 -36 95 -24 66 -144 312 -162 334 -16 18 -35
53 -43 74 -3 9 -10 17 -15 17 -5 0 -9 7 -9 15 0 8 -4 15 -8 15 -5 0 -14 11
-20 25 -13 28 -130 178 -143 183 -5 2 -9 8 -9 14 0 16 -239 249 -330 321 -162
129 -360 248 -531 321 -24 10 -52 23 -63 28 -68 35 -393 128 -501 143 -68 9
-123 18 -145 23 -28 6 -5634 14 -5641 8z"/>
</g>
</svg>
